<?xml version="1.0" encoding="utf-8"?>
<svg version="1.0" xmlns="http://www.w3.org/2000/svg" viewBox="0 0 2816 1572" preserveAspectRatio="xMidYMid meet">
 <g fill="#fdfdfd">
  <path d="M0 785.86 l0 -785.86 1408 0 1408 0 0 785.86 0 785.86 -1408 0 -1408 0 0 -785.86z m1713.34 551.94 c36.22 -7.37 60.17 -16.78 96.80 -37.45 18.42 -10.23 32.33 -21.49 54.23 -43.59 48.71 -48.71 73.06 -98.44 85.34 -173.13 3.48 -20.87 3.68 -41.75 3.68 -293.67 0 -249.88 -0.20 -273.21 -3.68 -296.74 -10.64 -73.67 -36.02 -128.11 -82.07 -175.59 -40.11 -41.34 -79.81 -64.26 -135.68 -78.38 -46.25 -11.67 -57.30 -12.07 -316.19 -12.07 -134.66 0 -248.04 0.82 -264 2.05 -82.27 5.93 -143.26 30.90 -194.42 79.40 -44.41 42.36 -71.63 91.89 -85.54 155.33 -9.82 45.23 -10.44 67.13 -9.62 340.33 0.61 225.93 1.02 257.25 4.09 275.67 12.28 75.11 37.86 129.54 82.07 173.54 50.55 50.34 111.13 78.79 185.62 86.77 9.62 1.02 138.55 1.64 290.40 1.23 240.47 -0.41 275.05 -0.82 288.97 -3.68z"/>
  <path d="M1343.74 1263.52 c-104.37 -14.12 -196.47 -61.60 -272.39 -140.39 -72.24 -74.90 -118.90 -174.77 -129.95 -278.33 -4.91 -47.68 -1.43 -122.59 7.98 -164.74 21.49 -95.16 67.13 -176.82 136.50 -244.15 68.56 -66.51 148.17 -106.83 241.08 -122.79 31.11 -5.32 99.67 -7.57 130.77 -4.30 220.82 22.72 395.39 200.56 417.08 424.86 3.68 38.68 1.43 106.01 -4.91 142.23 -11.87 67.53 -36.63 128.73 -74.49 184.80 -20.26 30.08 -34.79 47.48 -62.21 74.29 -41.34 40.11 -74.08 63.24 -125.04 87.59 -48.30 23.33 -92.71 36.22 -143.87 42.16 -25.38 2.87 -95.98 2.25 -120.54 -1.23z m93.93 -54.03 c77.77 -7.37 149.40 -35 211.40 -81.25 21.90 -16.37 59.96 -55.05 77.36 -78.38 44.20 -59.55 72.65 -127.09 86.16 -203.63 4.71 -28.04 4.71 -92.09 0 -120.74 -26.81 -156.56 -129.75 -286.31 -269.73 -339.72 -94.55 -36.22 -203.83 -31.72 -296.54 11.67 -105.60 49.53 -187.05 143.26 -224.30 258.47 -30.90 95.57 -29.88 175.59 3.27 271.98 8.60 24.76 29.06 67.94 42.36 88.61 32.54 51.37 77.15 97 125.86 128.93 50.75 33.36 119.93 57.30 183.78 63.85 24.97 2.46 35 2.46 60.37 0.20z"/>
  <path d="M1329.21 1183.50 c-29.47 -3.68 -67.13 -14.53 -95.78 -27.83 l-18.01 -8.19 0.61 -7.37 c0.61 -6.96 1.02 -7.37 9 -7.98 4.50 -0.41 16.99 1.64 27.83 4.50 44.61 11.67 82.68 11.26 130.36 -1.02 67.13 -17.40 127.09 -63.65 163.93 -126.68 24.56 -41.95 40.93 -101.51 40.93 -148.58 0 -78.38 -46.05 -163.11 -103.76 -191.14 -17.19 -8.39 -41.34 -14.33 -58.33 -14.33 l-13.92 0 0 -6.75 c0 -4.50 1.64 -8.39 4.30 -10.85 3.89 -3.48 7.78 -3.89 42.57 -3.89 l38.07 0 18.83 7.37 c23.33 9 37.86 17.80 56.69 33.77 36.22 30.90 64.26 81.66 75.31 135.89 4.09 20.26 4.71 29.27 4.50 66.51 0 38.47 -0.61 45.64 -5.53 68.97 -6.75 31.52 -12.48 48.50 -28.04 80.43 -39.09 81.04 -118.29 141.82 -202.60 155.53 -17.80 2.87 -69.79 3.89 -86.98 1.64z"/>
  <path d="M1553.30 1159.55 c0 -6.14 1.64 -8.60 12.69 -18.01 54.64 -46.87 83.70 -87.18 105.19 -146.12 26.20 -71.83 27.42 -144.07 3.68 -215.70 -32.95 -99.87 -109.69 -169.86 -197.28 -179.89 -62.42 -7.37 -130.98 24.15 -166.38 76.54 -14.94 21.90 -23.94 48.30 -27.01 79.40 l-1.43 13.71 -6.75 0 -6.75 0 -2.87 -14.73 c-3.48 -19.03 -3.27 -67.74 0.20 -87.59 13.30 -74.70 61.19 -139.78 128.52 -174.57 21.49 -11.05 48.30 -20.26 72.24 -24.76 25.17 -4.91 76.74 -4.30 102.53 0.82 107.03 21.90 187.05 103.35 219.59 223.68 5.53 20.06 11.46 60.37 11.46 77.36 l0 10.03 -6.96 0 c-6.34 0 -6.96 -0.61 -8.39 -7.57 -2.87 -15.14 -15.35 -50.14 -26.20 -72.65 -26.20 -55.26 -71.63 -109.28 -116.04 -137.73 -50.55 -32.74 -107.65 -46.05 -157.79 -36.84 -16.17 3.07 -45.02 11.67 -50.34 14.94 -1.23 0.82 11.05 1.02 27.42 0.82 46.87 -1.23 84.93 6.96 123.61 26.20 84.32 42.16 142.23 119.52 164.95 220 4.30 18.62 5.32 29.88 6.14 65.08 0.61 27.42 0.20 48.30 -1.43 59.35 -11.87 82.68 -54.23 160.04 -114.40 208.54 -30.49 24.56 -68.97 46.66 -81.25 46.66 -6.55 0 -6.96 -0.41 -6.96 -6.96z"/>
  <path d="M1250.42 1106.14 c-20.26 -3.68 -49.32 -13.30 -67.74 -22.51 -55.26 -27.22 -104.99 -79 -133.84 -139.16 -16.17 -33.56 -29.67 -84.73 -29.67 -111.74 l0 -12.28 8.60 0.61 8.39 0.61 5.73 17.40 c7.37 22.31 24.97 57.51 40.52 80.84 41.54 62.62 104.78 110.10 168.84 126.68 39.70 10.44 72.04 9 112.76 -4.50 l22.51 -7.57 -38.88 -1.23 c-24.56 -0.82 -44.82 -2.46 -54.85 -4.71 -52.39 -11.46 -99.67 -37.86 -139.57 -77.77 -39.91 -40.11 -69.17 -92.09 -83.70 -148.58 -8.80 -34.38 -10.44 -48.09 -10.44 -91.07 0.20 -43.59 2.25 -59.14 12.48 -94.55 23.33 -81.04 84.32 -157.58 156.35 -196.87 12.89 -6.96 17.19 -8.39 27.22 -8.39 l11.67 0 0 6.75 c-0.20 5.53 -1.84 7.78 -11.46 14.73 -35.40 25.38 -76.33 76.13 -96.80 119.93 -35.40 75.93 -42.16 151.03 -20.67 227.57 6.75 23.94 19.65 55.67 30.08 73.27 25.99 44.61 67.74 83.70 110.31 103.55 106.42 49.12 232.48 -12.89 251.11 -123.61 l2.66 -15.96 9.21 0 9 0 1.64 11.26 c1.02 6.14 1.23 26.40 0.82 45.02 -0.82 27.22 -2.05 37.66 -6.34 53.82 -23.74 91.27 -95.16 158.20 -189.30 177.43 -24.35 4.91 -81.66 5.53 -106.62 1.02z"/>
  <path d="M1330.23 940.17 c-40.93 -7.78 -72.65 -25.58 -101.51 -56.69 -32.54 -35 -52.19 -76.33 -61.19 -128.11 -1.84 -10.64 -3.07 -30.70 -3.07 -52.39 0 -58.53 9.62 -101.51 33.77 -151.85 28.45 -59.55 73.47 -106.21 130.98 -135.48 18.01 -9.41 51.98 -20.87 72.65 -24.97 20.67 -3.89 87.39 -3.48 107.44 1.02 25.99 5.53 53.41 15.14 77.56 27.22 33.36 16.78 38.07 20.26 38.07 28.45 0 6.14 -0.61 6.96 -5.53 6.96 -3.27 0 -14.12 -3.27 -24.56 -7.16 -24.35 -9.21 -55.46 -15.35 -83.70 -16.78 -89.23 -4.50 -179.07 43.80 -232.48 125.04 -38.27 58.33 -57.30 138.55 -46.87 197.69 5.73 32.13 21.28 72.24 37.25 95.57 30.29 44.20 79.20 70.20 132 70.20 l13.10 0 0 6.96 c0 6.55 -0.41 6.96 -11.67 10.44 -11.67 3.48 -60.17 6.14 -72.24 3.89z"/>
  <path d="M1378.12 872.22 c-23.74 -8.39 -38.88 -22.10 -49.53 -44.82 -5.32 -11.26 -5.53 -13.51 -5.53 -41.54 0 -28.65 0.20 -30.08 5.93 -41.95 7.57 -15.35 23.94 -31.52 39.50 -39.09 11.26 -5.32 13.51 -5.73 40.52 -5.93 27.22 0 29.27 0.20 38.88 5.53 31.11 16.37 48.09 45.43 48.09 82.47 0 37.66 -18.21 68.35 -48.71 82.47 -10.03 4.50 -14.94 5.32 -35.20 5.93 -18.83 0.61 -25.58 0 -33.97 -3.07z"/>
 </g>
 <g fill="#f75b0d">
  <path d="M1127.83 1346.40 c-74.49 -7.98 -135.07 -36.43 -185.62 -86.77 -44.20 -44 -69.79 -98.44 -82.07 -173.54 -3.07 -18.62 -3.48 -50.14 -4.09 -281.80 -0.82 -279.76 -0.20 -301.25 9.62 -346.47 13.92 -63.44 41.13 -112.97 85.54 -155.33 51.16 -48.50 112.15 -73.47 194.42 -79.40 16.17 -1.23 131.59 -2.05 270.14 -2.05 265.43 0 276.07 0.41 322.33 12.07 55.87 14.12 95.57 37.04 135.68 78.38 46.05 47.48 71.42 101.92 82.07 175.59 3.48 23.53 3.68 47.07 3.68 302.88 0 257.86 -0.20 278.94 -3.68 299.81 -9.21 56.07 -25.58 97.82 -54.23 138.14 -11.46 16.17 -48.50 53.62 -63.85 64.87 -24.76 17.60 -60.37 35.40 -88.41 43.59 -37.66 11.26 -23.33 10.85 -324.99 11.26 -155.33 0.41 -286.92 -0.20 -296.54 -1.23z m330.31 -87.80 c51.16 -5.93 95.57 -18.83 143.87 -42.16 50.96 -24.35 83.70 -47.48 125.04 -87.59 27.42 -26.81 41.95 -44.20 62.21 -74.29 38.07 -56.07 62.62 -117.47 74.49 -184.80 6.34 -36.43 8.39 -93.53 4.91 -129.95 -14.53 -150.01 -99.26 -284.87 -227.16 -361.82 -57.30 -34.59 -122.38 -56.07 -189.92 -63.03 -29.06 -3.07 -88.41 -0.82 -119.11 4.50 -92.30 15.76 -172.11 56.28 -240.47 122.59 -69.38 67.33 -115.01 148.99 -136.50 244.15 -9.21 41.75 -12.69 107.44 -7.98 152.47 11.05 103.55 57.71 203.42 129.95 278.33 75.93 78.79 168.02 126.27 272.39 140.39 24.56 3.48 83.09 4.09 108.26 1.23z"/>
  <path d="M1371.16 1215.42 c-63.85 -6.55 -133.02 -30.49 -183.78 -63.85 -48.71 -31.93 -93.32 -77.56 -125.86 -128.93 -27.22 -42.77 -51.16 -104.78 -61.80 -160.45 -27.01 -140.60 30.29 -307.39 138.55 -403.37 93.53 -83.09 206.49 -116.86 331.13 -99.46 128.52 18.21 243.53 103.55 305.75 227.57 19.65 39.09 36.22 89.43 43.59 132.41 4.91 29.06 4.91 104.58 0 133.02 -13.51 76.95 -41.95 144.07 -86.16 203.63 -17.40 23.33 -55.46 62.01 -77.36 78.38 -49.12 36.63 -105.60 62.21 -163.31 73.88 -43.80 8.80 -81.66 11.05 -120.74 7.16z m38.88 -39.70 c84.32 -13.71 163.52 -74.49 202.60 -155.53 15.55 -31.93 21.28 -48.91 28.04 -80.43 4.71 -22.31 5.32 -31.11 5.53 -62.83 0.20 -30.70 -0.61 -40.73 -4.50 -60.37 -10.85 -54.23 -39.09 -104.99 -75.31 -135.89 -18.83 -15.96 -33.36 -24.76 -56.69 -33.77 -18.83 -7.37 -18.83 -7.37 -50.96 -7.37 -30.70 0 -32.54 0.20 -36.84 4.71 l-4.50 4.50 14.33 0 c41.75 0 80.84 20.67 111.74 59.35 32.13 39.70 50.75 95.98 50.75 152.26 0 134.46 -84.73 250.49 -205.47 281.60 -48.71 12.48 -95.57 12.89 -142.23 0.82 -27.83 -7.16 -30.90 -4.30 -6.96 6.75 28.65 13.30 66.31 24.15 95.78 27.83 16.17 2.05 57.10 1.02 74.70 -1.64z m180.91 -31.31 c87.18 -50.96 144.28 -136.91 159.01 -239.44 3.68 -26.81 1.23 -84.11 -4.91 -111.94 -22.51 -100.28 -80.63 -177.84 -164.95 -220 -56.07 -27.83 -115.42 -33.56 -182.34 -17.40 -4.71 1.23 -4.71 0.82 1.84 -4.91 8.19 -7.37 30.90 -18.42 49.32 -24.35 78.18 -25.17 163.93 -5.73 230.03 51.78 50.55 44 88.82 104.99 108.67 172.93 3.89 12.89 6.96 21.49 7.16 19.03 0.20 -10.85 -6.75 -54.44 -11.46 -71.63 -32.54 -120.33 -112.56 -201.79 -219.59 -223.68 -25.17 -5.12 -65.90 -5.53 -90.25 -0.82 -103.76 19.65 -183.16 98.23 -200.76 199.33 -3.48 20.26 -3.48 56.69 0.20 75.72 l2.87 15.35 1.64 -11.26 c6.14 -41.75 11.46 -57.92 26.20 -80.63 36.84 -56.28 107.44 -87.39 179.07 -79 111.13 13.10 199.53 117.27 213.86 252.13 11.26 107.44 -30.29 219.59 -105.60 285.28 -7.57 6.55 -18.01 15.96 -23.13 20.87 l-9.41 8.80 8.19 -3.27 c4.50 -1.84 15.55 -7.57 24.35 -12.89z"/>
 </g>
</svg>
